<?xml version="1.0" encoding="UTF-8" standalone="no"?>
<!-- Created with Inkscape (http://www.inkscape.org/) -->

<svg
   xmlns:dc="http://purl.org/dc/elements/1.1/"
   xmlns:cc="http://creativecommons.org/ns#"
   xmlns:rdf="http://www.w3.org/1999/02/22-rdf-syntax-ns#"
   xmlns:svg="http://www.w3.org/2000/svg"
   xmlns="http://www.w3.org/2000/svg"
   xmlns:sodipodi="http://sodipodi.sourceforge.net/DTD/sodipodi-0.dtd"
   xmlns:inkscape="http://www.inkscape.org/namespaces/inkscape"
   width="200"
   height="200"
   viewBox="0 0 200 200"
   id="svg4208"
   version="1.1"
   inkscape:version="0.91 r13725"
   sodipodi:docname="logo.svg"
   inkscape:export-filename="C:\Users\wowods\Desktop\pnew_logopng"
   inkscape:export-xdpi="180.28"
   inkscape:export-ydpi="180.28">
  <defs
     id="defs4210" />
  <sodipodi:namedview
     id="base"
     pagecolor="#ffffff"
     bordercolor="#666666"
     borderopacity="1.0"
     inkscape:pageopacity="0.0"
     inkscape:pageshadow="2"
     inkscape:zoom="1.4"
     inkscape:cx="114.55404"
     inkscape:cy="147.98882"
     inkscape:document-units="px"
     inkscape:current-layer="layer1"
     showgrid="false"
     units="px"
     inkscape:window-width="1920"
     inkscape:window-height="1017"
     inkscape:window-x="-8"
     inkscape:window-y="-8"
     inkscape:window-maximized="1" />
  <metadata
     id="metadata4213">
    <rdf:RDF>
      <cc:Work
         rdf:about="">
        <dc:format>image/svg+xml</dc:format>
        <dc:type
           rdf:resource="http://purl.org/dc/dcmitype/StillImage" />
        <dc:title />
      </cc:Work>
    </rdf:RDF>
  </metadata>
  <g
     inkscape:label="Layer 1"
     inkscape:groupmode="layer"
     id="layer1"
     transform="translate(0,-852.36216)">
    <path
       style="fill:none;stroke:#4d4d4d;stroke-width:8;stroke-linecap:round;stroke-miterlimit:4;stroke-dasharray:none"
       id="path4317-9-1"
       sodipodi:type="arc"
       sodipodi:cx="87.399849"
       sodipodi:cy="952.35962"
       sodipodi:rx="76.648415"
       sodipodi:ry="76.655922"
       sodipodi:start="1.5707963"
       sodipodi:end="0.2443461"
       sodipodi:open="true"
       d="m 87.399851,1029.0155 a 76.648415,76.655922 0 0 1 -72.472501,-51.69915 76.648415,76.655922 0 0 1 25.283022,-85.36242 76.648415,76.655922 0 0 1 88.935198,-3.88338 76.648415,76.655922 0 0 1 32.62591,82.83382" />
    <path
       style="fill:#cccccc;stroke:#4d4d4d;stroke-width:8;stroke-miterlimit:4;stroke-dasharray:none"
       d="m 58.108908,908.16099 c -15.520078,-1.55907 -29.414656,10.24712 -31.034664,26.37009 -1.619658,16.123 9.648663,30.45723 25.1687,32.01668 11.852186,1.17442 23.196734,-5.50122 28.359996,-16.6883 l 14.188924,1.42553 c 2.764224,12.09533 12.598196,21.00224 24.527916,22.21566 15.52044,1.55976 29.41573,-10.24656 31.03578,-26.36997 1.62037,-16.12385 -9.64872,-30.45906 -25.1697,-32.01795 -23.525,-2.84147 -32.325011,-3.36637 -67.076952,-6.95174 z"
       id="path4136-7-0"
       inkscape:connector-curvature="0"
       sodipodi:nodetypes="ccccccccc" />
    <path
       style="fill:none;fill-rule:evenodd;stroke:#4d4d4d;stroke-width:8;stroke-linecap:round;stroke-linejoin:miter;stroke-miterlimit:4;stroke-dasharray:none;stroke-opacity:1"
       d="m 40.113942,934.03599 27.265862,2.73933"
       id="path4197-1-2-5"
       inkscape:connector-curvature="0" />
    <path
       style="fill:none;fill-rule:evenodd;stroke:#4d4d4d;stroke-width:8;stroke-linecap:round;stroke-linejoin:miter;stroke-miterlimit:4;stroke-dasharray:none;stroke-opacity:1"
       d="m 54.83957,922.54319 -2.739335,27.26586"
       id="path4197-1-1-1-2"
       inkscape:connector-curvature="0" />
    <circle
       style="fill:#5599ff;fill-opacity:1;stroke:#4d4d4d;stroke-width:4;stroke-linecap:round;stroke-miterlimit:4;stroke-dasharray:none"
       id="path4229-5-9"
       cx="204.97336"
       cy="926.6886"
       r="5.92343"
       transform="matrix(0.99499104,0.09996417,-0.09996417,0.99499104,0,0)" />
    <circle
       style="fill:#5599ff;fill-opacity:1;stroke:#4d4d4d;stroke-width:4;stroke-linecap:round;stroke-miterlimit:4;stroke-dasharray:none"
       id="path4229-1-9-0"
       cx="216.9305"
       cy="915.71924"
       r="5.92343"
       transform="matrix(0.99499104,0.09996417,-0.09996417,0.99499104,0,0)" />
    <circle
       style="fill:#ff5555;stroke:#4d4d4d;stroke-width:4;stroke-linecap:round;stroke-miterlimit:4;stroke-dasharray:none"
       id="path4229-1-7-9-5"
       cx="229.13789"
       cy="927.5929"
       r="5.92343"
       transform="matrix(0.99499104,0.09996417,-0.09996417,0.99499104,0,0)" />
    <circle
       style="fill:#ff5555;stroke:#4d4d4d;stroke-width:4;stroke-linecap:round;stroke-miterlimit:4;stroke-dasharray:none"
       id="path4229-1-7-6-0-8"
       cx="217.09732"
       cy="938.47888"
       r="5.92343"
       transform="matrix(0.99499104,0.09996417,-0.09996417,0.99499104,0,0)" />
    <path
       style="fill:#4d4d4d;fill-rule:evenodd;stroke:#4d4d4d;stroke-width:2;stroke-linecap:butt;stroke-linejoin:miter;stroke-miterlimit:4;stroke-dasharray:none;stroke-opacity:1"
       d="M 191.67271,981.6793 159.4359,968.36409 c -6.17093,23.84668 -13.04266,40.86051 -16.352,47.30401 z"
       id="path4280-1"
       inkscape:connector-curvature="0"
       sodipodi:nodetypes="cccc" />
  </g>
</svg>
