<svg height="200" viewBox="0 0 200 200" width="200" xmlns="http://www.w3.org/2000/svg"><g stroke="#4d4d4d" transform="translate(0 -852.36216)"><path d="m87.399851 1029.0155a76.648415 76.655922 0 0 1 -72.472501-51.69915 76.648415 76.655922 0 0 1 25.283022-85.36242 76.648415 76.655922 0 0 1 88.935198-3.88338 76.648415 76.655922 0 0 1 32.62591 82.83382" fill="none" stroke-linecap="round" stroke-width="8"/><path d="m58.108908 908.16099c-15.520078-1.55907-29.414656 10.24712-31.034664 26.37009-1.619658 16.123 9.648663 30.45723 25.1687 32.01668 11.852186 1.17442 23.196734-5.50122 28.359996-16.6883l14.188924 1.42553c2.764224 12.09533 12.598196 21.00224 24.527916 22.21566 15.52044 1.55976 29.41573-10.24656 31.03578-26.36997 1.62037-16.12385-9.64872-30.45906-25.1697-32.01795-23.525-2.84147-32.325011-3.36637-67.076952-6.95174z" fill="#ccc" stroke-width="8"/><g stroke-linecap="round"><path d="m40.113942 934.03599 27.265862 2.73933" fill="none" stroke-width="8"/><path d="m54.83957 922.54319-2.739335 27.26586" fill="none" stroke-width="8"/><circle cx="204.97336" cy="926.6886" fill="#59f" r="5.92343" stroke-width="4" transform="matrix(.99499104 .09996417 -.09996417 .99499104 0 0)"/><circle cx="216.9305" cy="915.71924" fill="#59f" r="5.92343" stroke-width="4" transform="matrix(.99499104 .09996417 -.09996417 .99499104 0 0)"/><circle cx="229.13789" cy="927.5929" fill="#f55" r="5.92343" stroke-width="4" transform="matrix(.99499104 .09996417 -.09996417 .99499104 0 0)"/><circle cx="217.09732" cy="938.47888" fill="#f55" r="5.92343" stroke-width="4" transform="matrix(.99499104 .09996417 -.09996417 .99499104 0 0)"/></g><path d="m191.67271 981.6793-32.23681-13.31521c-6.17093 23.84668-13.04266 40.86051-16.352 47.30401z" fill="#4d4d4d" fill-rule="evenodd" stroke-width="2"/></g></svg>