<?xml version="1.0" standalone="no"?>
<!DOCTYPE svg PUBLIC "-//W3C//DTD SVG 20010904//EN"
 "http://www.w3.org/TR/2001/REC-SVG-20010904/DTD/svg10.dtd">
<svg version="1.0" xmlns="http://www.w3.org/2000/svg"
 width="401.000000pt" height="401.000000pt" viewBox="0 0 401.000000 401.000000"
 preserveAspectRatio="xMidYMid meet">
<metadata>
Created by potrace 1.11, written by Peter Selinger 2001-2013
</metadata>
<g transform="translate(0.000000,401.000000) scale(0.100000,-0.100000)"
fill="#000000" stroke="none">
<path d="M1522 3609 c-539 -82 -1005 -427 -1232 -912 -243 -521 -199 -1117
119 -1592 280 -420 751 -689 1244 -712 124 -6 128 -5 152 17 18 17 25 34 25
61 0 52 -35 79 -104 79 -153 0 -392 52 -545 118 -173 75 -314 171 -450 304
-204 203 -337 446 -403 739 -20 89 -23 132 -23 294 0 210 16 310 77 484 286
818 1238 1205 2013 819 582 -289 900 -914 789 -1553 -37 -215 -223 -786 -314
-965 -20 -38 -20 -44 -6 -58 14 -14 20 -12 68 22 29 20 254 177 500 349 246
172 448 315 448 318 0 3 -124 56 -275 119 -219 90 -274 116 -270 129 16 51 35
233 35 336 -1 766 -534 1423 -1288 1586 -111 24 -450 35 -560 18z"/>
<path d="M1025 2969 c-148 -22 -252 -75 -365 -189 -98 -97 -147 -184 -180
-314 -63 -248 27 -525 220 -684 64 -53 192 -115 268 -131 76 -16 214 -14 286
5 144 36 301 147 377 265 29 45 35 49 63 45 17 -3 56 -8 86 -11 l55 -6 44 -91
c80 -169 242 -300 421 -342 329 -78 660 117 766 449 112 351 -78 731 -419 839
-57 18 -149 33 -307 51 -276 30 -1230 125 -1245 124 -5 -1 -37 -5 -70 -10z
m647 -214 c723 -72 877 -91 942 -115 193 -73 316 -256 316 -471 0 -247 -178
-461 -415 -499 -238 -38 -477 135 -535 386 l-11 50 -182 17 c-100 10 -192 17
-204 17 -17 0 -31 -16 -60 -72 -96 -183 -302 -291 -491 -258 -335 58 -505 430
-339 743 74 141 246 252 395 256 18 1 281 -24 584 -54z"/>
<path d="M1060 2678 c-31 -17 -47 -63 -55 -162 l-7 -78 -66 6 c-37 4 -86 9
-109 13 -38 5 -46 2 -73 -25 -31 -32 -38 -68 -20 -102 16 -30 41 -39 147 -51
54 -6 99 -12 101 -14 2 -1 -2 -51 -8 -110 -13 -120 -6 -154 36 -174 39 -17 63
-13 93 17 25 24 29 38 39 135 6 60 13 111 16 114 2 3 50 0 105 -6 135 -15 172
1 174 73 1 53 -31 82 -99 90 -30 3 -79 9 -109 12 l-55 6 6 107 c6 95 5 108
-12 128 -24 28 -71 38 -104 21z"/>
<path d="M2425 2546 c-76 -34 -120 -141 -85 -207 11 -19 10 -19 -22 1 -46 28
-129 27 -175 -1 -43 -27 -73 -85 -73 -142 0 -115 132 -192 237 -138 61 30 86
77 81 151 -3 56 3 73 17 50 3 -5 24 -14 45 -20 114 -31 227 78 201 192 -23
100 -132 155 -226 114z"/>
<path d="M2640 2278 c-65 -34 -85 -67 -85 -143 l0 -63 -30 16 c-42 22 -114 20
-156 -4 -104 -61 -108 -203 -6 -278 40 -29 134 -29 174 0 54 40 75 83 71 145
l-3 56 44 -20 c63 -28 121 -17 175 33 l41 39 0 75 c0 69 -2 77 -30 107 -58 61
-122 74 -195 37z"/>
</g>
</svg>
